PathFileType	4	(X/Y/Z)	Walk2.trc
DataRate	CameraRate	NumFrames	NumMarkers	Units	OrigDataRate	OrigDataStartFrame	OrigNumFrames
200.000000	200.000000	9	59	mm	200.000000	268	389
Frame#	Times		LFHD		RFHD		LBHD		RBHD		C7		T10		CLAV		STRN		RBack		LASI		RASI		LPSI		RPSI		RACR1		RUA1		RElbow		RFA1		RWRR		RWRU		RCAR		LACR1		LUA1		LElbow		LElbowM		LFA1		LWRR		LWRU		LCAR		RTH1		RTH3		RTH2		RTH4		RLFC		RTB1		RTB3		RTB2		RTB4		RLMAL		RMMAL		RCAL		RMT1		RMT5		RToe		LTH1		LTH3		LTH2		LTH4		LLFC		LTB1		LTB3		LTB2		LTB4		LLMAL		LMMAL		LCAL		LMT1		LMT5		LToe		RElbowM
			X1	Y1	Z1	X2	Y2	Z2	X3	Y3	Z3	X4	Y4	Z4	X5	Y5	Z5	X6	Y6	Z6	X7	Y7	Z7	X8	Y8	Z8	X9	Y9	Z9	X10	Y10	Z10	X11	Y11	Z11	X12	Y12	Z12	X13	Y13	Z13	X14	Y14	Z14	X15	Y15	Z15	X16	Y16	Z16	X17	Y17	Z17	X18	Y18	Z18	X19	Y19	Z19	X20	Y20	Z20	X21	Y21	Z21	X22	Y22	Z22	X23	Y23	Z23	X24	Y24	Z24	X25	Y25	Z25	X26	Y26	Z26	X27	Y27	Z27	X28	Y28	Z28	X29	Y29	Z29	X30	Y30	Z30	X31	Y31	Z31	X32	Y32	Z32	X33	Y33	Z33	X34	Y34	Z34	X35	Y35	Z35	X36	Y36	Z36	X37	Y37	Z37	X38	Y38	Z38	X39	Y39	Z39	X40	Y40	Z40	X41	Y41	Z41	X42	Y42	Z42	X43	Y43	Z43	X44	Y44	Z44	X45	Y45	Z45	X46	Y46	Z46	X47	Y47	Z47	X48	Y48	Z48	X49	Y49	Z49	X50	Y50	Z50	X51	Y51	Z51	X52	Y52	Z52	X53	Y53	Z53	X54	Y54	Z54	X55	Y55	Z55	X56	Y56	Z56	X57	Y57	Z57	X58	Y58	Z58	X59	Y59	Z59

268	1.34	505.58	1583.2	-44.629	510.26	1582.1	49.877	354.16	1531	-66.857	357.08	1536.6	73.767	322.52	1406.7	15.999	247.75	1141	16.854	459.21	1327.7	-0.70762	518.67	1222.7	-0.50121	280.26	1312.3	127.63	501.68	947.7	-133.12	502.49	965.38	162.92	254.87	949.32	-31.323	255.19	958.59	57.67	408.53	1366.9	156.96	419.47	1192.5	261.03	387.72	1069	299.78	445.45	932.83	319.38	560.53	873.74	281.61	509.35	841.4	322.35	586.08	831.48	335.41	384.83	1364.9	-152.75	345.8	1183.1	-240.84	292.59	1062.7	-259.37	264.82	1041.6	-183.35	276.84	927.7	-275.81	342.02	809.25	-243.43	281.09	809.33	-282.09	337.75	761.14	-286.01	400.9	733.35	229.57	346.99	577.73	180	425.37	646.33	180.82	371.94	655.15	203.08	315.07	494.88	157.55	314.73	336.04	80.541	264.3	170.79	74.209	267.6	257.82	132.55	289.75	252.16	74.296	200.78	67.87	93.722	215.79	75.001	12.222	134.31	40.863	59.097	312.39	33.683	35.05	281.09	25.569	111.53	381.18	26.705	65.805	430.91	735.89	-201.43	504.44	588.66	-153.11	519.38	692.42	-171.64	467.53	664.15	-172.69	552.16	483.34	-121.65	641.55	360.78	-55.951	662.15	190.12	-65.591	625.88	273.24	-114.83	651.15	274.73	-59.165	644.67	72.497	-92.062	664.92	81.078	-9.9093	595.91	25.039	-49.89	739.92	52.993	-107.26	769.08	74.107	-38.443	824.55	95.314	-73.264	380.65	1029.4	208.83
269	1.345	511.2	1582.4	-45.115	515.82	1581.2	49.394	359.8	1530.1	-67.403	362.66	1535.7	73.229	328.15	1405.8	15.549	253.36	1140.1	16.488	464.9	1326.8	-1.14	524.36	1221.8	-0.91724	285.92	1311.4	127.27	507.42	946.85	-133.46	508	964.6	162.73	260.53	948.32	-31.747	260.89	957.65	57.19	414.22	1366	156.51	425.69	1191.8	260.48	394.06	1068.3	299.47	452.02	932.23	319.15	567.17	873.36	281.06	516.13	840.87	321.85	592.9	831.15	334.8	390.39	1364	-153.2	350.16	1182.4	-241.14	296.43	1062.1	-259.35	269.22	1041.1	-183.13	279.97	927.27	-275.82	345.04	808.45	-244.13	283.6	808.87	-282.21	339.97	760.43	-286.67	405.7	732.73	229.44	350.83	577.45	179.73	429.62	645.63	180.57	376.25	654.68	202.89	318.47	494.75	157.36	317.06	335.77	80.446	265.35	170.92	74.103	269.23	257.93	132.43	291.43	252.07	74.213	201.07	68.465	93.619	216.16	75.462	12.108	134.43	41.836	58.959	312.48	33.736	35.018	281.09	25.599	111.4	381.3	26.543	65.958	436.81	735.14	-201.94	509.68	587.42	-153.89	525.02	691.33	-171.56	473.09	663.12	-173.42	557.32	482.11	-121.96	649.02	361.49	-55.611	673.62	191.24	-65.141	635.66	273.58	-114.58	660.62	275.64	-58.774	659.08	73.028	-91.558	678.72	82.195	-9.3795	611.07	24.575	-49.578	755.05	55.091	-106.12	783.26	77.039	-37.18	838.6	99.237	-71.52	386.57	1028.6	208.7
270	1.35	516.82	1581.5	-45.617	521.39	1580.4	48.894	365.44	1529.1	-67.98	368.23	1534.8	72.665	333.77	1404.9	15.06	259	1139.2	16.09	470.59	1325.9	-1.5976	530.05	1220.8	-1.3545	291.57	1310.6	126.87	513.22	945.99	-133.75	513.54	963.87	162.57	266.23	947.31	-32.202	266.63	956.71	56.675	419.89	1365.2	156.05	431.86	1191	259.92	400.36	1067.5	299.11	458.53	931.6	318.88	573.71	872.92	280.46	522.82	840.31	321.34	599.62	830.76	334.16	395.97	1363.1	-153.68	354.58	1181.7	-241.45	300.35	1061.5	-259.34	273.68	1040.5	-182.94	283.18	926.81	-275.83	348.11	807.64	-244.79	286.21	808.39	-282.33	342.28	759.69	-287.29	410.55	732.11	229.29	354.74	577.16	179.46	433.93	644.92	180.33	380.61	654.21	202.67	321.95	494.61	157.17	319.45	335.5	80.341	266.42	171.08	74.012	270.92	258.07	132.33	293.15	251.98	74.131	201.37	69.095	93.56	216.52	75.943	12.028	134.54	42.859	58.877	312.56	33.793	34.989	281.09	25.635	111.29	381.41	26.386	66.104	442.73	734.38	-202.45	515	586.2	-154.64	530.69	690.27	-171.51	478.69	662.09	-174.15	562.57	480.92	-122.25	656.31	362.12	-55.246	684.6	192.31	-64.667	645.13	273.92	-114.31	669.76	276.49	-58.359	672.81	73.609	-91.037	691.84	83.32	-8.8337	625.48	24.258	-49.261	769.43	57.107	-104.97	796.72	79.817	-35.905	851.95	102.93	-69.759	392.45	1027.8	208.51
271	1.355	522.44	1580.6	-46.137	526.95	1579.5	48.379	371.07	1528.2	-68.589	373.8	1533.9	72.074	339.38	1404	14.535	264.66	1138.3	15.659	476.29	1325	-2.0813	535.74	1219.9	-1.8115	297.21	1309.7	126.42	519.09	945.13	-134.01	519.1	963.15	162.44	271.96	946.3	-32.689	272.42	955.76	56.124	425.54	1364.3	155.56	437.97	1190.2	259.34	406.62	1066.8	298.73	464.98	930.96	318.56	580.15	872.41	279.84	529.42	839.71	320.82	606.25	830.32	333.49	401.57	1362.1	-154.19	359.06	1180.9	-241.79	304.33	1060.9	-259.35	278.2	1039.9	-182.77	286.47	926.33	-275.84	351.23	806.81	-245.44	288.9	807.9	-282.46	344.66	758.93	-287.86	415.46	731.51	229.12	358.73	576.87	179.19	438.31	644.22	180.08	385.03	653.74	202.43	325.52	494.47	156.98	321.91	335.22	80.223	267.53	171.24	73.936	272.69	258.22	132.25	294.92	251.9	74.049	201.69	69.76	93.548	216.87	76.447	11.985	134.66	43.935	58.857	312.63	33.854	34.963	281.11	25.676	111.21	381.52	26.237	66.242	448.67	733.62	-202.96	520.41	585.02	-155.34	536.41	689.25	-171.47	484.35	661.09	-174.86	567.92	479.77	-122.5	663.43	362.66	-54.857	695.09	193.32	-64.176	654.26	274.22	-114.02	678.56	277.25	-57.922	685.83	74.2	-90.503	704.25	84.405	-8.277	639.09	24.05	-48.944	783.03	58.995	-103.81	809.44	82.386	-34.635	864.57	106.32	-68.007	398.3	1026.9	208.27
272	1.36	528.06	1579.7	-46.674	532.51	1578.7	47.848	376.71	1527.2	-69.231	379.35	1533	71.458	344.99	1403	13.973	270.35	1137.3	15.196	481.99	1324.1	-2.5919	541.45	1219	-2.2872	302.83	1308.8	125.94	525.02	944.27	-134.23	524.69	962.47	162.33	277.72	945.28	-33.209	278.24	954.8	55.54	431.18	1363.5	155.06	444.02	1189.4	258.75	412.84	1066	298.3	471.35	930.3	318.2	586.49	871.84	279.17	535.92	839.08	320.29	612.79	829.83	332.8	407.17	1361.2	-154.74	363.63	1180.1	-242.15	308.39	1060.3	-259.37	282.78	1039.3	-182.63	289.84	925.83	-275.86	354.39	805.96	-246.05	291.68	807.38	-282.58	347.13	758.14	-288.4	420.42	730.91	228.94	362.81	576.57	178.91	442.77	643.51	179.83	389.52	653.27	202.18	329.19	494.33	156.79	324.44	334.94	80.092	268.67	171.41	73.875	274.54	258.4	132.18	296.74	251.83	73.964	202.04	70.462	93.585	217.2	76.975	11.981	134.79	45.065	58.905	312.69	33.921	34.941	281.14	25.723	111.15	381.62	26.096	66.372	454.63	732.85	-203.45	525.94	583.89	-155.97	542.18	688.26	-171.44	490.07	660.1	-175.54	573.38	478.68	-122.7	670.39	363.08	-54.447	705.07	194.21	-63.671	663.06	274.47	-113.72	687.03	277.91	-57.468	698.1	74.761	-89.961	715.93	85.406	-7.7122	651.87	23.918	-48.632	795.81	60.714	-102.66	821.4	84.694	-33.385	876.46	109.36	-66.285	404.1	1026.1	207.96
273	1.365	533.68	1578.9	-47.228	538.06	1577.9	47.3	382.35	1526.3	-69.905	384.9	1532.1	70.816	350.59	1402.1	13.376	276.07	1136.4	14.702	487.69	1323.2	-3.1298	547.15	1218.1	-2.7808	308.46	1307.9	125.42	531.01	943.42	-134.42	530.32	961.8	162.25	283.53	944.28	-33.763	284.09	953.84	54.926	436.8	1362.7	154.53	450.01	1188.6	258.14	419.01	1065.3	297.84	477.65	929.61	317.8	592.73	871.21	278.47	542.33	838.41	319.75	619.22	829.3	332.07	412.8	1360.2	-155.31	368.27	1179.3	-242.54	312.53	1059.6	-259.41	287.43	1038.7	-182.51	293.31	925.3	-275.88	357.61	805.09	-246.64	294.55	806.84	-282.7	349.69	757.33	-288.91	425.45	730.32	228.73	366.98	576.27	178.64	447.32	642.81	179.59	394.08	652.8	201.91	332.97	494.17	156.6	327.04	334.65	79.943	269.85	171.6	73.828	276.49	258.59	132.14	298.61	251.77	73.873	202.4	71.201	93.673	217.52	77.531	12.019	134.92	46.251	59.025	312.74	33.994	34.923	281.19	25.775	111.11	381.71	25.967	66.493	460.63	732.07	-203.93	531.59	582.83	-156.52	548.02	687.34	-171.43	495.87	659.15	-176.16	578.97	477.65	-122.84	677.19	363.38	-54.02	714.53	194.98	-63.156	671.51	274.64	-113.39	695.15	278.44	-57.001	709.61	75.252	-89.412	726.86	86.279	-7.1404	663.78	23.831	-48.324	807.74	62.219	-101.54	832.58	86.688	-32.166	887.59	111.98	-64.612	409.87	1025.3	207.58
274	1.37	539.3	1578	-47.799	543.6	1577	46.736	387.99	1525.4	-70.611	390.45	1531.2	70.147	356.18	1401.2	12.745	281.82	1135.5	14.176	493.39	1322.4	-3.6954	552.87	1217.2	-3.292	314.07	1307	124.86	537.07	942.58	-134.59	535.97	961.16	162.2	289.37	943.28	-34.35	289.98	952.89	54.284	442.41	1361.9	153.98	455.93	1187.9	257.52	425.12	1064.5	297.34	483.88	928.92	317.35	598.87	870.53	277.74	548.63	837.73	319.2	625.55	828.72	331.32	418.43	1359.2	-155.92	373	1178.5	-242.95	316.75	1058.9	-259.46	292.13	1038	-182.42	296.86	924.75	-275.91	360.87	804.21	-247.2	297.52	806.28	-282.83	352.35	756.49	-289.39	430.55	729.74	228.49	371.26	575.96	178.37	451.95	642.1	179.35	398.71	652.33	201.62	336.87	493.99	156.4	329.72	334.34	79.776	271.07	171.79	73.795	278.54	258.8	132.11	300.54	251.71	73.775	202.8	71.979	93.811	217.84	78.117	12.099	135.06	47.496	59.218	312.78	34.073	34.91	281.25	25.832	111.11	381.8	25.849	66.606	466.66	731.29	-204.39	537.37	581.85	-156.97	553.92	686.47	-171.42	501.75	658.24	-176.72	584.68	476.68	-122.92	683.85	363.53	-53.58	723.47	195.58	-62.633	679.61	274.72	-113.04	702.95	278.81	-56.522	720.33	75.638	-88.854	737.04	86.99	-6.5607	674.81	23.762	-48.019	818.79	63.47	-100.46	842.97	88.322	-30.988	897.98	114.14	-63.002	415.6	1024.4	207.14
275	1.375	544.92	1577.2	-48.387	549.14	1576.2	46.154	393.63	1524.5	-71.348	395.99	1530.3	69.453	361.78	1400.3	12.08	287.6	1134.5	13.62	499.1	1321.5	-4.289	558.59	1216.3	-3.8202	319.68	1306.1	124.26	543.2	941.74	-134.73	541.67	960.52	162.15	295.27	942.3	-34.966	295.91	951.95	53.617	448.01	1361.1	153.41	461.79	1187.1	256.89	431.16	1063.8	296.8	490.02	928.21	316.86	604.9	869.8	276.98	554.84	837.02	318.64	631.78	828.1	330.54	424.07	1358.3	-156.56	377.81	1177.7	-243.38	321.06	1058.2	-259.53	296.91	1037.4	-182.36	300.5	924.18	-275.95	364.17	803.31	-247.73	300.57	805.71	-282.95	355.1	755.63	-289.83	435.71	729.16	228.24	375.66	575.64	178.11	456.69	641.4	179.11	403.44	651.85	201.31	340.9	493.8	156.19	332.49	334.02	79.588	272.34	171.99	73.774	280.69	259.02	132.09	302.53	251.66	73.668	203.22	72.797	93.999	218.15	78.737	12.222	135.22	48.804	59.487	312.81	34.161	34.904	281.33	25.895	111.13	381.89	25.743	66.711	472.74	730.51	-204.83	543.3	580.95	-157.32	559.9	685.66	-171.42	507.73	657.37	-177.21	590.52	475.78	-122.94	690.36	363.55	-53.128	731.9	196	-62.101	687.36	274.69	-112.67	710.41	279.03	-56.033	730.27	75.886	-88.286	746.45	87.505	-5.9714	684.94	23.688	-47.711	828.97	64.428	-99.432	852.59	89.554	-29.857	907.61	115.79	-61.465	421.3	1023.6	206.63
276	1.38	550.54	1576.4	-48.992	554.68	1575.5	45.555	399.27	1523.6	-72.115	401.52	1529.4	68.73	367.37	1399.4	11.383	293.41	1133.6	13.035	504.81	1320.7	-4.9104	564.33	1215.5	-4.3654	325.29	1305.2	123.61	549.38	940.92	-134.86	547.4	959.9	162.12	301.22	941.35	-35.61	301.87	951.03	52.929	453.59	1360.3	152.81	467.59	1186.3	256.24	437.15	1063	296.22	496.09	927.49	316.33	610.83	869.02	276.19	560.94	836.3	318.07	637.91	827.44	329.74	429.72	1357.3	-157.24	382.71	1176.8	-243.84	325.47	1057.4	-259.62	301.76	1036.7	-182.32	304.24	923.6	-276	367.53	802.4	-248.23	303.73	805.11	-283.07	357.94	754.76	-290.25	440.95	728.59	227.97	380.17	575.31	177.84	461.53	640.69	178.88	408.26	651.37	200.99	345.08	493.59	155.98	335.36	333.68	79.38	273.66	172.21	73.765	282.96	259.25	132.08	304.59	251.62	73.551	203.68	73.656	94.236	218.46	79.395	12.388	135.39	50.178	59.834	312.84	34.257	34.904	281.43	25.965	111.18	381.98	25.647	66.808	478.87	729.74	-205.23	549.38	580.14	-157.56	565.97	684.92	-171.42	513.8	656.56	-177.6	596.48	474.95	-122.9	696.74	363.41	-52.669	739.82	196.21	-61.558	694.76	274.53	-112.28	717.56	279.06	-55.535	739.41	75.971	-87.703	755.11	87.801	-5.3696	694.16	23.595	-47.393	838.26	65.059	-98.45	861.42	90.348	-28.776	916.51	116.87	-60.009	426.97	1022.7	206.06
